<svg width="420" height="140" viewBox="0 0 420 140" fill="none" xmlns="http://www.w3.org/2000/svg">
<rect width="420" height="140" fill="white"/>
<path d="M67.3577 97.5617C67.3577 102.073 66.8424 106.318 65.8118 110.299C64.7811 114.279 62.9888 117.751 60.4347 120.714C57.8806 123.677 54.4303 126.021 50.0838 127.746C45.7373 129.471 40.2483 130.333 33.6165 130.333C27.5225 130.333 22.2799 129.604 17.8886 128.144C13.4973 126.685 9.86779 124.982 7 123.036L13.9902 106.982C16.5891 108.486 19.3673 109.812 22.3247 110.962C25.2821 112.112 28.5083 112.687 32.0034 112.687C37.1116 112.687 40.7859 111.449 43.0264 108.972C45.2669 106.495 46.3871 102.338 46.3871 96.5002V36.5294H67.3577V97.5617Z" fill="black"/>
<path d="M140.617 36.5294H162.011V130.333H140.617V90.5377H104.685V130.333H83.2912V36.5294H104.685V72.3996H140.617V36.5294Z" fill="black"/>
<path d="M206.374 130.333H186.03V36.5294H206.374V130.333Z" fill="black"/>
<path d="M230.788 130.333H250.07L287.606 68.6134V130.333H306.889V36.5294H287.606L250.006 98.3782V36.5294H230.788V130.333Z" fill="black"/>
<path d="M345.674 130.333C347.594 127.265 377.079 93.1998 380.371 90.6731V130.333H401.765V36.5294H380.371V71.9935C374.794 66.2182 352.714 41.8536 347.868 36.5294H322.497C328.988 44.1096 355.457 72.58 362.68 79.709C355.091 85.9355 326.794 119.956 320.302 130.333H345.674Z" fill="black"/>
<path d="M203.346 26.6693C201.326 28.4846 198.945 29.3922 196.202 29.3922C193.459 29.3922 191.078 28.4846 189.059 26.6693C187.04 24.8541 186.03 22.3631 186.03 19.1961C186.03 16.0291 187.04 13.538 189.059 11.7228C191.078 9.9076 193.459 9 196.202 9C198.945 9 201.326 9.9076 203.346 11.7228C205.365 13.538 206.374 16.0291 206.374 19.1961C206.374 22.3631 205.365 24.8541 203.346 26.6693Z" fill="white" stroke="#D4A574" stroke-width="4"/>
</svg>
